<svg width="122" height="23" viewBox="0 0 122 23" fill="none" xmlns="http://www.w3.org/2000/svg">
<path d="M0.59668 22V7.58594C0.59668 5.79883 1.13867 4.33887 2.22266 3.20605C3.30664 2.07324 4.71289 1.50684 6.44141 1.50684C8.49219 1.50684 10.0693 2.44922 11.1729 4.33398C11.8467 3.31836 12.5693 2.5957 13.3408 2.16602C14.1123 1.72656 15.0645 1.50684 16.1973 1.50684C17.9941 1.50684 19.3711 2.07324 20.3281 3.20605C21.2852 4.33887 21.7637 5.96973 21.7637 8.09863V22H15.8164V8.99219C15.8164 8.34766 15.7627 7.92285 15.6553 7.71777C15.5576 7.50293 15.3525 7.39551 15.04 7.39551C14.4541 7.39551 14.1611 7.89355 14.1611 8.88965V22H8.21387V8.99219C8.21387 8.35742 8.16016 7.93262 8.05273 7.71777C7.94531 7.50293 7.73535 7.39551 7.42285 7.39551C6.83691 7.39551 6.54395 7.92773 6.54395 8.99219V22H0.59668ZM33.0869 16.5215V22.1904C32.6377 22.2686 32.2275 22.3076 31.8564 22.3076C29.6592 22.3076 27.8281 21.585 26.3633 20.1396C24.8984 18.6943 24.166 16.8828 24.166 14.7051C24.166 12.5859 24.9033 10.7891 26.3779 9.31445C27.8623 7.83984 29.6641 7.10254 31.7832 7.10254C34.1465 7.10254 36.0068 7.7959 37.3643 9.18262C38.7314 10.5596 39.415 12.4443 39.415 14.8369V22H33.9365V15.2324C33.9365 14.4609 33.7461 13.8457 33.3652 13.3867C32.9941 12.9277 32.4912 12.6982 31.8564 12.6982C31.2803 12.6982 30.7822 12.9082 30.3623 13.3281C29.9424 13.748 29.7324 14.2461 29.7324 14.8223C29.7324 15.4277 29.9229 15.9258 30.3037 16.3164C30.6846 16.707 31.168 16.9023 31.7539 16.9023C32.2324 16.9023 32.6768 16.7754 33.0869 16.5215ZM83.7119 7.60059H89.1904V15.4668C89.1904 16.082 89.2539 16.5117 89.3809 16.7559C89.5078 16.9902 89.7373 17.1074 90.0693 17.1074C90.6846 17.1074 90.9922 16.5605 90.9922 15.4668V7.60059H96.4707V15.4668C96.4707 16.082 96.5342 16.5117 96.6611 16.7559C96.7979 16.9902 97.0322 17.1074 97.3643 17.1074C97.9697 17.1074 98.2725 16.5605 98.2725 15.4668V7.60059H103.751V16.5947C103.751 18.2354 103.199 19.6318 102.096 20.7842C100.992 21.9268 99.6543 22.498 98.082 22.498C96.4609 22.498 95.0059 21.8145 93.7168 20.4473C92.291 21.8145 90.8555 22.498 89.4102 22.498C87.584 22.498 86.1191 21.834 85.0156 20.5059C84.1465 19.4609 83.7119 17.9521 83.7119 15.9795V7.60059ZM115.089 16.5215V22.1904C114.64 22.2686 114.229 22.3076 113.858 22.3076C111.661 22.3076 109.83 21.585 108.365 20.1396C106.9 18.6943 106.168 16.8828 106.168 14.7051C106.168 12.5859 106.905 10.7891 108.38 9.31445C109.864 7.83984 111.666 7.10254 113.785 7.10254C116.148 7.10254 118.009 7.7959 119.366 9.18262C120.733 10.5596 121.417 12.4443 121.417 14.8369V22H115.938V15.2324C115.938 14.4609 115.748 13.8457 115.367 13.3867C114.996 12.9277 114.493 12.6982 113.858 12.6982C113.282 12.6982 112.784 12.9082 112.364 13.3281C111.944 13.748 111.734 14.2461 111.734 14.8223C111.734 15.4277 111.925 15.9258 112.306 16.3164C112.687 16.707 113.17 16.9023 113.756 16.9023C114.234 16.9023 114.679 16.7754 115.089 16.5215Z" fill="black"/>
<path d="M48.0869 2.00488V22H42.6084V2.00488H48.0869ZM56.4805 7.39551L53.7998 12.7129L57.7842 22H51.7197L48.292 12.4639L50.7822 7.39551H56.4805ZM64.2588 7.39551V22H58.7803V7.39551H64.2588ZM61.5342 0.876953C62.2764 0.876953 62.916 1.14062 63.4531 1.66797C64 2.18555 64.2734 2.80078 64.2734 3.51367C64.2734 4.27539 64.0146 4.90039 63.4971 5.38867C62.9893 5.87695 62.335 6.12109 61.5342 6.12109C60.7334 6.12109 60.0742 5.87695 59.5566 5.38867C59.0488 4.90039 58.7949 4.27539 58.7949 3.51367C58.7949 2.80078 59.0635 2.18555 59.6006 1.66797C60.1475 1.14062 60.792 0.876953 61.5342 0.876953ZM80.5039 22H75.0254V13.7529C75.0254 12.9131 74.6787 12.4932 73.9854 12.4932C73.3018 12.4932 72.96 12.9131 72.96 13.7529V22H67.4814V13.8555C67.4814 11.9512 68.1113 10.3496 69.3711 9.05078C70.6309 7.74219 72.1738 7.08789 74 7.08789C76.0898 7.08789 77.7646 7.84473 79.0244 9.3584C80.0107 10.54 80.5039 12.1855 80.5039 14.2949V22Z" fill="#0089EC"/>
</svg>
