<svg width="27" height="30" viewBox="0 0 27 30" fill="none" xmlns="http://www.w3.org/2000/svg">
<path d="M22.5 30C21.25 30 20.1875 29.5625 19.3125 28.6875C18.4375 27.8125 18 26.75 18 25.5C18 25.325 18.0125 25.1435 18.0375 24.9555C18.0625 24.7685 18.1 24.6 18.15 24.45L7.575 18.3C7.15 18.675 6.675 18.9685 6.15 19.1805C5.625 19.3935 5.075 19.5 4.5 19.5C3.25 19.5 2.1875 19.0625 1.3125 18.1875C0.4375 17.3125 0 16.25 0 15C0 13.75 0.4375 12.6875 1.3125 11.8125C2.1875 10.9375 3.25 10.5 4.5 10.5C5.075 10.5 5.625 10.606 6.15 10.818C6.675 11.031 7.15 11.325 7.575 11.7L18.15 5.55C18.1 5.4 18.0625 5.2315 18.0375 5.0445C18.0125 4.8565 18 4.675 18 4.5C18 3.25 18.4375 2.1875 19.3125 1.3125C20.1875 0.4375 21.25 0 22.5 0C23.75 0 24.8125 0.4375 25.6875 1.3125C26.5625 2.1875 27 3.25 27 4.5C27 5.75 26.5625 6.8125 25.6875 7.6875C24.8125 8.5625 23.75 9 22.5 9C21.925 9 21.375 8.8935 20.85 8.6805C20.325 8.4685 19.85 8.175 19.425 7.8L8.85 13.95C8.9 14.1 8.9375 14.2685 8.9625 14.4555C8.9875 14.6435 9 14.825 9 15C9 15.175 8.9875 15.356 8.9625 15.543C8.9375 15.731 8.9 15.9 8.85 16.05L19.425 22.2C19.85 21.825 20.325 21.531 20.85 21.318C21.375 21.106 21.925 21 22.5 21C23.75 21 24.8125 21.4375 25.6875 22.3125C26.5625 23.1875 27 24.25 27 25.5C27 26.75 26.5625 27.8125 25.6875 28.6875C24.8125 29.5625 23.75 30 22.5 30Z" fill="#0089EC"/>
</svg>
